<svg width="21" height="12" viewBox="0 0 21 12" fill="none" xmlns="http://www.w3.org/2000/svg">
<path fill-rule="evenodd" clip-rule="evenodd" d="M15.4136 0.85L16.8536 2.29L11.9736 7.17L8.68358 3.88C8.49675 3.69275 8.2431 3.58751 7.97858 3.58751C7.71406 3.58751 7.46041 3.69275 7.27358 3.88L1.27358 9.89C0.883579 10.28 0.883579 10.91 1.27358 11.3C1.66358 11.69 2.29358 11.69 2.68358 11.3L7.97358 6L11.2636 9.29C11.6536 9.68 12.2836 9.68 12.6736 9.29L18.2636 3.71L19.7036 5.15C20.0136 5.46 20.5536 5.24 20.5536 4.8V0.5C20.5636 0.22 20.3436 0 20.0636 0H15.7736C15.3236 0 15.1036 0.54 15.4136 0.85Z" fill="#C3CAD9"/>
</svg>
