<svg width="22" height="19" viewBox="0 0 22 19" fill="none" xmlns="http://www.w3.org/2000/svg">
<path fill-rule="evenodd" clip-rule="evenodd" d="M20.3144 7.21166H15.8437L11.7464 1.07966C11.3731 0.52899 10.5611 0.52899 10.1971 1.07966L6.09975 7.21166H1.64775C1.13442 7.21166 0.714417 7.63166 0.714417 8.14499C0.714417 8.22899 0.72375 8.31299 0.75175 8.39699L3.12242 17.049C3.33708 17.833 4.05575 18.4117 4.91442 18.4117H17.0478C17.9064 18.4117 18.6251 17.833 18.8491 17.049L21.2197 8.39699L21.2477 8.14499C21.2477 7.63166 20.8277 7.21166 20.3144 7.21166ZM10.9717 3.28232L13.5944 7.21166H8.34908L10.9717 3.28232ZM10.9811 14.6783C9.95442 14.6783 9.11442 13.8383 9.11442 12.8117C9.11442 11.785 9.95442 10.945 10.9811 10.945C12.0077 10.945 12.8477 11.785 12.8477 12.8117C12.8477 13.8383 12.0077 14.6783 10.9811 14.6783Z" fill="#C3CAD9"/>
</svg>
