<svg width="17" height="20" viewBox="0 0 17 20" fill="none" xmlns="http://www.w3.org/2000/svg">
<path fill-rule="evenodd" clip-rule="evenodd" d="M8.56756 19.5C9.66756 19.5 10.5676 18.6 10.5676 17.5H6.56756C6.56756 18.6 7.45756 19.5 8.56756 19.5ZM14.5676 13.5V8.5C14.5676 5.43 12.9276 2.86 10.0676 2.18V1.5C10.0676 0.67 9.39756 0 8.56756 0C7.73756 0 7.06756 0.67 7.06756 1.5V2.18C4.19756 2.86 2.56756 5.42 2.56756 8.5V13.5L1.27756 14.79C0.647556 15.42 1.08756 16.5 1.97756 16.5H15.1476C16.0376 16.5 16.4876 15.42 15.8576 14.79L14.5676 13.5Z" fill="#C3CAD9"/>
</svg>
