<svg width="106" height="61" viewBox="0 0 106 61" fill="none" xmlns="http://www.w3.org/2000/svg">
<path opacity="0.5" fill-rule="evenodd" clip-rule="evenodd" d="M0.981079 20.5L10.5265 10.5L20.072 5.5L29.6174 15.5L39.1629 14.5L48.7084 9.5L58.2538 15.5L67.7993 5.5L77.3447 0.5L86.8902 5.5L96.4356 0.5L105.981 12.5V37.5L96.4356 25.5L86.8902 28.5L77.3447 25.5L67.7993 30.5L58.2538 38.5L48.7084 42.5L39.1629 34.5L29.6174 35.5L20.072 45.5L10.5265 35.5L0.981079 45.5V20.5Z" fill="#FF6633"/>
<path opacity="0.5" fill-rule="evenodd" clip-rule="evenodd" d="M0.981079 45.5L10.5265 35.5L20.072 45.5L29.6174 35.5L39.1629 34.5L48.7084 42.5L58.2538 38.5L67.7993 30.5L77.3447 25.5L86.8902 28.5L96.4356 25.5L105.981 37.5V60.5H0.981079V45.5Z" fill="#8833FF"/>
</svg>
