<svg width="21" height="20" viewBox="0 0 21 20" fill="none" xmlns="http://www.w3.org/2000/svg">
<path fill-rule="evenodd" clip-rule="evenodd" d="M10.9811 8.9C10.3711 8.9 9.88108 9.39 9.88108 10C9.88108 10.61 10.3711 11.1 10.9811 11.1C11.5911 11.1 12.0811 10.61 12.0811 10C12.0811 9.39 11.5911 8.9 10.9811 8.9ZM10.9811 0C5.46108 0 0.981079 4.48 0.981079 10C0.981079 15.52 5.46108 20 10.9811 20C16.5011 20 20.9811 15.52 20.9811 10C20.9811 4.48 16.5011 0 10.9811 0ZM13.1711 12.19L4.98108 16L8.79108 7.81L16.9811 4L13.1711 12.19Z" fill="#C3CAD9"/>
</svg>
