<svg width="18" height="12" viewBox="0 0 18 12" fill="none" xmlns="http://www.w3.org/2000/svg">
<path fill-rule="evenodd" clip-rule="evenodd" d="M8.04774 11.6H9.91441C10.4277 11.6 10.8477 11.18 10.8477 10.6667C10.8477 10.1533 10.4277 9.73333 9.91441 9.73333H8.04774C7.53441 9.73333 7.11441 10.1533 7.11441 10.6667C7.11441 11.18 7.53441 11.6 8.04774 11.6ZM0.581078 1.33333C0.581078 1.84666 1.00108 2.26666 1.51441 2.26666H16.4477C16.9611 2.26666 17.3811 1.84666 17.3811 1.33333C17.3811 0.819994 16.9611 0.399994 16.4477 0.399994H1.51441C1.00108 0.399994 0.581078 0.819994 0.581078 1.33333ZM4.31441 6.93333H13.6477C14.1611 6.93333 14.5811 6.51333 14.5811 5.99999C14.5811 5.48666 14.1611 5.06666 13.6477 5.06666H4.31441C3.80108 5.06666 3.38108 5.48666 3.38108 5.99999C3.38108 6.51333 3.80108 6.93333 4.31441 6.93333Z" fill="#C3CAD9"/>
</svg>
