<svg width="29" height="28" viewBox="0 0 29 28" fill="none" xmlns="http://www.w3.org/2000/svg">
<path fill-rule="evenodd" clip-rule="evenodd" d="M14.9811 4.66666C9.82907 4.66666 5.64774 8.84799 5.64774 14C5.64774 19.152 9.82907 23.3333 14.9811 23.3333C20.1331 23.3333 24.3144 19.152 24.3144 14C24.3144 8.84799 20.1331 4.66666 14.9811 4.66666ZM12.4517 18.004L9.10107 14.6533C8.9263 14.4789 8.82808 14.2422 8.82808 13.9953C8.82808 13.7484 8.9263 13.5117 9.10107 13.3373C9.46507 12.9733 10.0531 12.9733 10.4171 13.3373L13.1144 16.0253L19.5357 9.60399C19.8997 9.23999 20.4877 9.23999 20.8517 9.60399C21.2157 9.96799 21.2157 10.556 20.8517 10.92L13.7677 18.004C13.4131 18.368 12.8157 18.368 12.4517 18.004Z" fill="#C3CAD9"/>
</svg>
