<svg width="21" height="20" viewBox="0 0 21 20" fill="none" xmlns="http://www.w3.org/2000/svg">
<path fill-rule="evenodd" clip-rule="evenodd" d="M10.9811 0C5.46108 0 0.981079 4.48 0.981079 10C0.981079 15.52 5.46108 20 10.9811 20C16.5011 20 20.9811 15.52 20.9811 10C20.9811 4.48 16.5011 0 10.9811 0ZM10.9811 3C12.6411 3 13.9811 4.34 13.9811 6C13.9811 7.66 12.6411 9 10.9811 9C9.32108 9 7.98108 7.66 7.98108 6C7.98108 4.34 9.32108 3 10.9811 3ZM10.9811 17.2C8.48108 17.2 6.27108 15.92 4.98108 13.98C5.01108 11.99 8.98108 10.9 10.9811 10.9C12.9711 10.9 16.9511 11.99 16.9811 13.98C15.6911 15.92 13.4811 17.2 10.9811 17.2Z" fill="#C3CAD9"/>
</svg>
