<svg width="17" height="13" viewBox="0 0 17 13" fill="none" xmlns="http://www.w3.org/2000/svg">
<path fill-rule="evenodd" clip-rule="evenodd" d="M1.44774 5.99999H4.24774C4.76107 5.99999 5.18107 5.57999 5.18107 5.06666V1.33333C5.18107 0.819994 4.76107 0.399994 4.24774 0.399994H1.44774C0.934404 0.399994 0.514404 0.819994 0.514404 1.33333V5.06666C0.514404 5.57999 0.934404 5.99999 1.44774 5.99999ZM1.44774 12.5333H4.24774C4.76107 12.5333 5.18107 12.1133 5.18107 11.6V7.86666C5.18107 7.35333 4.76107 6.93333 4.24774 6.93333H1.44774C0.934404 6.93333 0.514404 7.35333 0.514404 7.86666V11.6C0.514404 12.1133 0.934404 12.5333 1.44774 12.5333ZM7.04774 12.5333H9.84774C10.3611 12.5333 10.7811 12.1133 10.7811 11.6V7.86666C10.7811 7.35333 10.3611 6.93333 9.84774 6.93333H7.04774C6.5344 6.93333 6.1144 7.35333 6.1144 7.86666V11.6C6.1144 12.1133 6.5344 12.5333 7.04774 12.5333ZM12.6477 12.5333H15.4477C15.9611 12.5333 16.3811 12.1133 16.3811 11.6V7.86666C16.3811 7.35333 15.9611 6.93333 15.4477 6.93333H12.6477C12.1344 6.93333 11.7144 7.35333 11.7144 7.86666V11.6C11.7144 12.1133 12.1344 12.5333 12.6477 12.5333ZM7.04774 5.99999H9.84774C10.3611 5.99999 10.7811 5.57999 10.7811 5.06666V1.33333C10.7811 0.819994 10.3611 0.399994 9.84774 0.399994H7.04774C6.5344 0.399994 6.1144 0.819994 6.1144 1.33333V5.06666C6.1144 5.57999 6.5344 5.99999 7.04774 5.99999ZM11.7144 1.33333V5.06666C11.7144 5.57999 12.1344 5.99999 12.6477 5.99999H15.4477C15.9611 5.99999 16.3811 5.57999 16.3811 5.06666V1.33333C16.3811 0.819994 15.9611 0.399994 15.4477 0.399994H12.6477C12.1344 0.399994 11.7144 0.819994 11.7144 1.33333Z" fill="#C3CAD9"/>
</svg>
