<svg width="21" height="20" viewBox="0 0 21 20" fill="none" xmlns="http://www.w3.org/2000/svg">
<path fill-rule="evenodd" clip-rule="evenodd" d="M10.9811 0C5.46108 0 0.981079 4.48 0.981079 10C0.981079 15.52 5.46108 20 10.9811 20C16.5011 20 20.9811 15.52 20.9811 10C20.9811 4.48 16.5011 0 10.9811 0ZM9.98108 17.93C6.03108 17.44 2.98108 14.08 2.98108 10C2.98108 9.38 3.06108 8.79 3.19108 8.21L7.98108 13V14C7.98108 15.1 8.88108 16 9.98108 16V17.93ZM16.8811 15.39C16.6211 14.58 15.8811 14 14.9811 14H13.9811V11C13.9811 10.45 13.5311 10 12.9811 10H6.98108V8H8.98108C9.53108 8 9.98108 7.55 9.98108 7V5H11.9811C13.0811 5 13.9811 4.1 13.9811 3V2.59C16.9111 3.78 18.9811 6.65 18.9811 10C18.9811 12.08 18.1811 13.97 16.8811 15.39Z" fill="#C3CAD9"/>
</svg>
