<svg width="21" height="20" viewBox="0 0 21 20" fill="none" xmlns="http://www.w3.org/2000/svg">
<path fill-rule="evenodd" clip-rule="evenodd" d="M10.9811 0C5.46108 0 0.981079 4.48 0.981079 10C0.981079 15.52 5.46108 20 10.9811 20C16.5011 20 20.9811 15.52 20.9811 10C20.9811 4.48 16.5011 0 10.9811 0ZM14.9811 11H11.9811V14C11.9811 14.55 11.5311 15 10.9811 15C10.4311 15 9.98108 14.55 9.98108 14V11H6.98108C6.43108 11 5.98108 10.55 5.98108 10C5.98108 9.45 6.43108 9 6.98108 9H9.98108V6C9.98108 5.45 10.4311 5 10.9811 5C11.5311 5 11.9811 5.45 11.9811 6V9H14.9811C15.5311 9 15.9811 9.45 15.9811 10C15.9811 10.55 15.5311 11 14.9811 11Z" fill="#C3CAD9"/>
</svg>
