<svg width="18" height="18" viewBox="0 0 18 18" fill="none" xmlns="http://www.w3.org/2000/svg">
<path fill-rule="evenodd" clip-rule="evenodd" d="M12.8151 11.0006H12.0251L11.7451 10.7306C12.9451 9.33063 13.5651 7.42063 13.2251 5.39063C12.7551 2.61063 10.4351 0.390626 7.63508 0.0506256C3.40508 -0.469374 -0.154921 3.09063 0.365079 7.32063C0.705079 10.1206 2.92508 12.4406 5.70508 12.9106C7.73508 13.2506 9.64508 12.6306 11.0451 11.4306L11.3151 11.7106V12.5006L15.5651 16.7506C15.9751 17.1606 16.6451 17.1606 17.0551 16.7506C17.4651 16.3406 17.4651 15.6706 17.0551 15.2606L12.8151 11.0006ZM6.81508 11.0006C4.32508 11.0006 2.31508 8.99063 2.31508 6.50063C2.31508 4.01063 4.32508 2.00063 6.81508 2.00063C9.30508 2.00063 11.3151 4.01063 11.3151 6.50063C11.3151 8.99063 9.30508 11.0006 6.81508 11.0006Z" fill="#C3CAD9"/>
</svg>
