<svg width="19" height="12" viewBox="0 0 19 12" fill="none" xmlns="http://www.w3.org/2000/svg">
<path fill-rule="evenodd" clip-rule="evenodd" d="M1.98108 12H17.9811C18.5311 12 18.9811 11.55 18.9811 11C18.9811 10.45 18.5311 10 17.9811 10H1.98108C1.43108 10 0.981079 10.45 0.981079 11C0.981079 11.55 1.43108 12 1.98108 12ZM1.98108 7H17.9811C18.5311 7 18.9811 6.55 18.9811 6C18.9811 5.45 18.5311 5 17.9811 5H1.98108C1.43108 5 0.981079 5.45 0.981079 6C0.981079 6.55 1.43108 7 1.98108 7ZM0.981079 1C0.981079 1.55 1.43108 2 1.98108 2H17.9811C18.5311 2 18.9811 1.55 18.9811 1C18.9811 0.45 18.5311 0 17.9811 0H1.98108C1.43108 0 0.981079 0.45 0.981079 1Z" fill="#C3CAD9"/>
</svg>
