<svg width="19" height="19" viewBox="0 0 19 19" fill="none" xmlns="http://www.w3.org/2000/svg">
<path fill-rule="evenodd" clip-rule="evenodd" d="M12.9811 8.58249V3.41249C12.9811 2.88249 12.7711 2.37249 12.3911 2.00249L10.6811 0.292486C10.4942 0.105233 10.2406 0 9.97608 0C9.71156 0 9.45791 0.105233 9.27108 0.292486L7.57108 1.99249C7.19108 2.37249 6.98108 2.88249 6.98108 3.41249V4.58249H2.98108C1.88108 4.58249 0.981079 5.48249 0.981079 6.58249V16.5825C0.981079 17.6825 1.88108 18.5825 2.98108 18.5825H16.9811C18.0811 18.5825 18.9811 17.6825 18.9811 16.5825V10.5825C18.9811 9.48248 18.0811 8.58249 16.9811 8.58249H12.9811ZM4.98108 16.5825H2.98108V14.5825H4.98108V16.5825ZM4.98108 12.5825H2.98108V10.5825H4.98108V12.5825ZM4.98108 8.58249H2.98108V6.58249H4.98108V8.58249ZM10.9811 16.5825H8.98108V14.5825H10.9811V16.5825ZM10.9811 12.5825H8.98108V10.5825H10.9811V12.5825ZM10.9811 8.58249H8.98108V6.58249H10.9811V8.58249ZM10.9811 4.58249H8.98108V2.58249H10.9811V4.58249ZM16.9811 16.5825H14.9811V14.5825H16.9811V16.5825ZM16.9811 12.5825H14.9811V10.5825H16.9811V12.5825Z" fill="#C3CAD9"/>
</svg>
