<svg width="14" height="18" viewBox="0 0 14 18" fill="none" xmlns="http://www.w3.org/2000/svg">
<path fill-rule="evenodd" clip-rule="evenodd" d="M1.38107 15.5333C1.38107 16.56 2.22107 17.4 3.24774 17.4H10.7144C11.7411 17.4 12.5811 16.56 12.5811 15.5333V6.20001C12.5811 5.17334 11.7411 4.33334 10.7144 4.33334H3.24774C2.22107 4.33334 1.38107 5.17334 1.38107 6.20001V15.5333ZM12.5811 1.53334H10.2477L9.58507 0.870673C9.41707 0.702673 9.17441 0.600006 8.93174 0.600006H5.03041C4.78774 0.600006 4.54507 0.702673 4.37707 0.870673L3.71441 1.53334H1.38107C0.867739 1.53334 0.447739 1.95334 0.447739 2.46667C0.447739 2.98001 0.867739 3.40001 1.38107 3.40001H12.5811C13.0944 3.40001 13.5144 2.98001 13.5144 2.46667C13.5144 1.95334 13.0944 1.53334 12.5811 1.53334Z" fill="#C3CAD9"/>
</svg>
