<svg width="16" height="14" viewBox="0 0 16 14" fill="none" xmlns="http://www.w3.org/2000/svg">
<path fill-rule="evenodd" clip-rule="evenodd" d="M1.44774 9.80001H14.5144C15.0277 9.80001 15.4477 9.38001 15.4477 8.86667C15.4477 8.35334 15.0277 7.93334 14.5144 7.93334H1.44774C0.934404 7.93334 0.514404 8.35334 0.514404 8.86667C0.514404 9.38001 0.934404 9.80001 1.44774 9.80001ZM1.44774 13.5333H14.5144C15.0277 13.5333 15.4477 13.1133 15.4477 12.6C15.4477 12.0867 15.0277 11.6667 14.5144 11.6667H1.44774C0.934404 11.6667 0.514404 12.0867 0.514404 12.6C0.514404 13.1133 0.934404 13.5333 1.44774 13.5333ZM1.44774 6.06667H14.5144C15.0277 6.06667 15.4477 5.64667 15.4477 5.13334C15.4477 4.62001 15.0277 4.20001 14.5144 4.20001H1.44774C0.934404 4.20001 0.514404 4.62001 0.514404 5.13334C0.514404 5.64667 0.934404 6.06667 1.44774 6.06667ZM0.514404 1.40001C0.514404 1.91334 0.934404 2.33334 1.44774 2.33334H14.5144C15.0277 2.33334 15.4477 1.91334 15.4477 1.40001C15.4477 0.886675 15.0277 0.466675 14.5144 0.466675H1.44774C0.934404 0.466675 0.514404 0.886675 0.514404 1.40001Z" fill="#C3CAD9"/>
</svg>
